<svg 
 xmlns="http://www.w3.org/2000/svg"
 xmlns:xlink="http://www.w3.org/1999/xlink"
 width="96px" height="107px">
<path fill-rule="evenodd"  fill="rgb(28, 93, 164)"
 d="M95.769,106.363 L14.000,106.363 L14.000,-0.000 L70.216,-0.000 L95.769,25.324 L95.769,106.363 Z"/>
<path fill-rule="evenodd"  fill="rgb(123, 182, 246)"
 d="M92.060,27.566 L67.785,27.566 L67.785,3.508 L92.060,27.566 Z"/>
<path fill-rule="evenodd"  fill="rgb(44, 122, 205)"
 d="M4.000,16.000 L51.000,16.000 C53.212,16.000 55.000,17.788 55.000,20.000 L55.000,40.000 C55.000,42.212 53.212,44.000 51.000,44.000 L4.000,44.000 C1.788,44.000 -0.000,42.212 -0.000,40.000 L-0.000,20.000 C-0.000,17.788 1.788,16.000 4.000,16.000 Z"/>
<path fill-rule="evenodd"  fill="rgb(123, 182, 246)"
 d="M40.831,28.545 C40.767,27.719 40.537,27.120 40.141,26.748 C39.746,26.375 39.144,26.189 38.335,26.189 C37.456,26.189 36.798,26.504 36.362,27.134 C35.925,27.764 35.701,28.741 35.690,30.065 L35.690,31.032 C35.690,32.415 35.899,33.426 36.318,34.064 C36.737,34.703 37.398,35.022 38.300,35.022 C39.114,35.022 39.722,34.836 40.124,34.464 C40.525,34.092 40.755,33.517 40.814,32.737 L43.450,32.737 C43.351,34.114 42.842,35.198 41.925,35.989 C41.008,36.780 39.800,37.176 38.300,37.176 C36.659,37.176 35.369,36.623 34.428,35.519 C33.488,34.415 33.018,32.898 33.018,30.971 L33.018,30.188 C33.018,28.958 33.235,27.874 33.668,26.936 C34.102,25.999 34.721,25.280 35.527,24.779 C36.333,24.278 37.269,24.027 38.335,24.027 C39.812,24.027 41.001,24.423 41.903,25.214 C42.806,26.005 43.327,27.115 43.468,28.545 L40.831,28.545 ZM29.341,36.402 C28.512,36.918 27.561,37.176 26.489,37.176 C25.428,37.176 24.482,36.921 23.650,36.411 C22.818,35.901 22.173,35.173 21.716,34.227 C21.259,33.281 21.028,32.192 21.022,30.962 L21.022,30.329 C21.022,29.069 21.249,27.960 21.703,27.002 C22.157,26.044 22.799,25.309 23.628,24.796 C24.457,24.284 25.405,24.027 26.471,24.027 C27.538,24.027 28.485,24.284 29.314,24.796 C30.144,25.309 30.785,26.044 31.239,27.002 C31.693,27.960 31.920,29.066 31.920,30.320 L31.920,30.892 C31.920,32.151 31.698,33.256 31.253,34.205 C30.807,35.154 30.170,35.887 29.341,36.402 ZM29.249,30.311 C29.249,28.970 29.008,27.950 28.528,27.253 C28.047,26.556 27.362,26.207 26.471,26.207 C25.587,26.207 24.904,26.551 24.423,27.240 C23.943,27.928 23.700,28.937 23.694,30.268 L23.694,30.892 C23.694,32.198 23.934,33.212 24.415,33.933 C24.895,34.653 25.587,35.014 26.489,35.014 C27.374,35.014 28.053,34.666 28.528,33.972 C29.003,33.278 29.243,32.266 29.249,30.936 L29.249,30.311 ZM17.121,36.226 C16.230,36.736 15.226,36.994 14.106,37.000 L10.142,37.000 L10.142,24.203 L14.080,24.203 C15.205,24.203 16.211,24.457 17.099,24.963 C17.987,25.470 18.680,26.191 19.178,27.125 C19.676,28.060 19.925,29.122 19.925,30.311 L19.925,30.900 C19.925,32.090 19.680,33.147 19.191,34.073 C18.702,34.999 18.012,35.717 17.121,36.226 ZM17.253,30.303 C17.253,29.002 16.983,28.016 16.444,27.345 C15.905,26.674 15.117,26.339 14.080,26.339 L12.779,26.339 L12.779,34.882 L14.054,34.882 C15.085,34.882 15.873,34.545 16.418,33.871 C16.963,33.197 17.241,32.233 17.253,30.979 L17.253,30.303 Z"/>
<path fill-rule="evenodd"  fill="rgb(123, 182, 246)"
 d="M35.000,63.901 L37.601,63.901 L37.601,87.307 L46.053,87.307 L52.554,75.739 L52.554,87.307 L60.356,87.307 L72.059,63.901 L74.660,63.901 L74.660,60.000 L62.957,60.000 L62.957,63.901 L64.908,63.901 L60.356,72.868 L60.356,60.000 L51.254,60.000 L43.452,74.683 L43.452,63.901 L46.053,63.901 L46.053,60.000 L35.000,60.000 L35.000,63.901 Z"/>
</svg>