<svg 
 xmlns="http://www.w3.org/2000/svg"
 xmlns:xlink="http://www.w3.org/1999/xlink"
 width="96px" height="107px">
<path fill-rule="evenodd"  fill="rgb(28, 93, 164)"
 d="M95.769,106.363 L14.000,106.363 L14.000,-0.000 L70.216,-0.000 L95.769,25.324 L95.769,106.363 Z"/>
<path fill-rule="evenodd"  fill="rgb(123, 182, 246)"
 d="M92.060,27.566 L67.785,27.566 L67.785,3.508 L92.060,27.566 Z"/>
<path fill-rule="evenodd"  fill="rgb(44, 122, 205)"
 d="M4.000,16.000 L51.000,16.000 C53.212,16.000 55.000,17.788 55.000,20.000 L55.000,40.000 C55.000,42.212 53.212,44.000 51.000,44.000 L4.000,44.000 C1.788,44.000 -0.000,42.212 -0.000,40.000 L-0.000,20.000 C-0.000,17.788 1.788,16.000 4.000,16.000 Z"/>
<path fill-rule="evenodd"  fill="rgb(123, 182, 246)"
 d="M48.238,37.000 L45.341,37.000 L43.016,32.767 L40.692,37.000 L37.795,37.000 L41.406,30.907 L37.886,24.914 L40.750,24.914 L43.016,29.081 L45.282,24.914 L48.146,24.914 L44.627,30.907 L48.238,37.000 ZM34.363,27.317 C33.990,26.966 33.421,26.790 32.657,26.790 C31.827,26.790 31.206,27.087 30.794,27.682 C30.382,28.277 30.170,29.200 30.159,30.451 L30.159,31.364 C30.159,32.670 30.357,33.624 30.752,34.227 C31.148,34.831 31.772,35.132 32.624,35.132 C33.393,35.132 33.968,34.957 34.347,34.605 C34.726,34.254 34.943,33.710 34.998,32.974 L37.488,32.974 C37.394,34.275 36.914,35.298 36.048,36.045 C35.182,36.792 34.041,37.166 32.624,37.166 C31.075,37.166 29.856,36.644 28.968,35.601 C28.080,34.558 27.635,33.126 27.635,31.306 L27.635,30.567 C27.635,29.405 27.840,28.381 28.250,27.496 C28.659,26.610 29.244,25.931 30.005,25.458 C30.766,24.985 31.650,24.748 32.657,24.748 C34.052,24.748 35.175,25.121 36.027,25.869 C36.880,26.616 37.372,27.664 37.505,29.015 L35.015,29.015 C34.954,28.234 34.737,27.668 34.363,27.317 ZM24.187,36.436 C23.404,36.922 22.506,37.166 21.493,37.166 C20.492,37.166 19.598,36.925 18.812,36.444 C18.026,35.962 17.417,35.275 16.986,34.381 C16.554,33.487 16.336,32.459 16.330,31.297 L16.330,30.700 C16.330,29.510 16.545,28.463 16.973,27.558 C17.402,26.653 18.008,25.959 18.791,25.474 C19.574,24.990 20.469,24.748 21.477,24.748 C22.484,24.748 23.379,24.990 24.162,25.474 C24.945,25.959 25.551,26.653 25.980,27.558 C26.409,28.463 26.623,29.507 26.623,30.691 L26.623,31.231 C26.623,32.421 26.413,33.464 25.992,34.360 C25.572,35.257 24.970,35.948 24.187,36.436 ZM24.100,30.683 C24.100,29.416 23.873,28.453 23.419,27.794 C22.965,27.136 22.318,26.807 21.477,26.807 C20.641,26.807 19.996,27.132 19.542,27.782 C19.089,28.432 18.859,29.385 18.854,30.641 L18.854,31.231 C18.854,32.465 19.080,33.422 19.534,34.103 C19.988,34.784 20.641,35.124 21.493,35.124 C22.329,35.124 22.971,34.796 23.419,34.140 C23.867,33.485 24.094,32.529 24.100,31.272 L24.100,30.683 ZM12.670,36.269 C11.829,36.751 10.880,36.994 9.823,37.000 L6.079,37.000 L6.079,24.914 L9.798,24.914 C10.860,24.914 11.811,25.153 12.649,25.632 C13.488,26.111 14.142,26.791 14.612,27.674 C15.083,28.557 15.318,29.560 15.318,30.683 L15.318,31.239 C15.318,32.363 15.087,33.361 14.625,34.236 C14.163,35.110 13.511,35.788 12.670,36.269 ZM12.794,30.675 C12.794,29.446 12.540,28.515 12.031,27.882 C11.522,27.248 10.777,26.931 9.798,26.931 L8.569,26.931 L8.569,34.999 L9.773,34.999 C10.747,34.999 11.491,34.681 12.006,34.045 C12.520,33.408 12.783,32.498 12.794,31.314 L12.794,30.675 Z"/>
<path fill-rule="evenodd"  fill="rgb(123, 182, 246)"
 d="M35.000,63.901 L37.601,63.901 L37.601,87.307 L46.053,87.307 L52.554,75.739 L52.554,87.307 L60.356,87.307 L72.059,63.901 L74.660,63.901 L74.660,60.000 L62.957,60.000 L62.957,63.901 L64.908,63.901 L60.356,72.868 L60.356,60.000 L51.254,60.000 L43.452,74.683 L43.452,63.901 L46.053,63.901 L46.053,60.000 L35.000,60.000 L35.000,63.901 Z"/>
</svg>