<svg 
 xmlns="http://www.w3.org/2000/svg"
 xmlns:xlink="http://www.w3.org/1999/xlink"
 width="96px" height="107px">
<path fill-rule="evenodd"  fill="rgb(198, 23, 22)"
 d="M95.769,106.363 L14.000,106.363 L14.000,-0.000 L70.216,-0.000 L95.769,25.324 L95.769,106.363 Z"/>
<path fill-rule="evenodd"  fill="rgb(255, 127, 127)"
 d="M92.275,28.058 L68.000,28.058 L68.000,4.000 L92.275,28.058 Z"/>
<path fill-rule="evenodd"  fill="rgb(159, 19, 18)"
 d="M4.000,16.000 L51.000,16.000 C53.212,16.000 55.000,17.788 55.000,20.000 L55.000,40.000 C55.000,42.212 53.212,44.000 51.000,44.000 L4.000,44.000 C1.788,44.000 -0.000,42.212 -0.000,40.000 L-0.000,20.000 C-0.000,17.788 1.788,16.000 4.000,16.000 Z"/>
<text kerning="auto" font-family="DejaVuSans" fill="rgb(0, 0, 0)" font-size="18px" x="12px" y="35.7140000000001px"><tspan font-size="18px" font-family="Roboto" fill="#FF7F7F">PDF</tspan></text>
<path fill-rule="evenodd"  fill="rgb(255, 127, 127)"
 d="M73.923,81.074 C73.923,81.479 73.849,81.856 73.702,82.206 C73.554,82.556 73.333,82.860 73.039,83.117 C72.781,83.449 72.413,83.697 71.934,83.863 C71.455,84.029 70.884,84.112 70.221,84.112 C69.006,84.112 67.533,83.919 65.802,83.532 C64.071,83.145 62.396,82.547 60.775,81.736 C58.087,82.068 55.712,82.418 53.649,82.786 C51.587,83.154 49.745,83.596 48.125,84.112 L47.517,84.333 C45.566,87.684 43.844,90.133 42.353,91.680 C40.861,93.227 39.471,94.000 38.182,94.000 L36.801,93.613 L35.309,92.674 L35.199,92.508 C35.088,92.214 35.024,91.928 35.005,91.652 C34.987,91.376 35.015,91.091 35.088,90.796 C35.236,89.986 35.779,88.973 36.718,87.758 C37.657,86.542 39.066,85.346 40.944,84.167 L43.761,82.620 L46.799,76.931 C47.573,75.310 48.236,73.717 48.788,72.152 C49.340,70.587 49.801,69.123 50.169,67.761 L50.169,67.705 C49.580,65.790 49.175,64.124 48.954,62.706 C48.733,61.288 48.917,59.530 49.506,57.431 C49.617,56.841 49.911,56.289 50.390,55.773 C50.869,55.258 51.403,55.000 51.992,55.000 L52.710,55.000 C53.078,55.000 53.428,55.064 53.760,55.193 C54.091,55.322 54.386,55.516 54.644,55.773 C55.675,56.804 56.071,58.425 55.831,60.634 C55.592,62.844 55.214,64.999 54.699,67.098 L54.588,67.540 C55.214,69.307 55.960,70.882 56.826,72.263 C57.691,73.644 58.621,74.739 59.615,75.550 L62.322,77.372 L66.410,77.151 C68.362,77.151 69.927,77.336 71.105,77.704 C72.284,78.072 73.094,78.625 73.536,79.361 C73.720,79.582 73.849,79.840 73.923,80.134 C73.996,80.429 73.996,80.742 73.923,81.074 ZM41.441,86.487 C40.336,87.482 39.443,88.467 38.762,89.443 C38.080,90.419 37.703,91.201 37.629,91.790 C38.329,91.533 39.139,90.888 40.060,89.857 C40.981,88.826 41.938,87.371 42.933,85.493 L41.441,86.487 ZM52.931,57.099 L52.434,56.989 L52.213,57.320 C51.955,57.983 51.835,58.876 51.854,59.999 C51.872,61.123 52.066,62.384 52.434,63.783 L52.600,63.673 L53.097,61.076 L53.207,60.579 C53.355,59.732 53.410,59.042 53.373,58.508 C53.336,57.974 53.189,57.504 52.931,57.099 ZM57.516,77.925 C56.559,77.115 55.675,76.139 54.865,74.997 C54.054,73.855 53.336,72.585 52.710,71.186 C52.342,72.327 51.891,73.524 51.357,74.776 C50.823,76.028 50.206,77.336 49.506,78.698 L47.959,81.957 L48.291,81.847 C50.280,81.074 52.185,80.457 54.008,79.996 C55.831,79.536 57.424,79.177 58.787,78.919 L57.516,77.925 ZM71.768,80.908 C71.621,80.761 71.142,80.540 70.332,80.245 C69.522,79.950 68.012,79.803 65.802,79.803 C65.655,79.803 65.535,79.821 65.443,79.858 C65.351,79.895 65.231,79.987 65.084,80.134 C66.226,80.613 67.321,81.000 68.371,81.295 C69.420,81.589 70.314,81.736 71.050,81.736 L71.658,81.681 L71.768,81.681 C71.842,81.644 71.906,81.608 71.961,81.571 C72.017,81.534 72.044,81.424 72.044,81.239 L71.768,80.908 Z"/>
</svg>