<svg 
 xmlns="http://www.w3.org/2000/svg"
 xmlns:xlink="http://www.w3.org/1999/xlink"
 width="96px" height="107px">
<path fill-rule="evenodd"  fill="rgb(230, 84, 29)"
 d="M95.769,106.363 L14.000,106.363 L14.000,-0.000 L70.216,-0.000 L95.769,25.324 L95.769,106.363 Z"/>
<path fill-rule="evenodd"  fill="rgb(255, 166, 132)"
 d="M92.275,28.058 L68.000,28.058 L68.000,4.000 L92.275,28.058 Z"/>
<path fill-rule="evenodd"  fill="rgb(186, 60, 13)"
 d="M4.000,16.000 L51.000,16.000 C53.212,16.000 55.000,17.788 55.000,20.000 L55.000,40.000 C55.000,42.212 53.212,44.000 51.000,44.000 L4.000,44.000 C1.788,44.000 -0.000,42.212 -0.000,40.000 L-0.000,20.000 C-0.000,17.788 1.788,16.000 4.000,16.000 Z"/>
<text kerning="auto" font-family="DejaVuSans" fill="rgb(0, 0, 0)" font-size="17px" x="7px" y="37.8409999999999px"><tspan font-size="17px" font-family="Roboto" font-weight="bold" fill="#FFA684">PPSX</tspan></text>
<path fill-rule="evenodd"  fill="rgb(255, 166, 132)"
 d="M57.004,69.996 L57.004,54.000 C59.207,54.000 61.281,54.416 63.226,55.248 C65.172,56.080 66.865,57.223 68.307,58.676 C69.748,60.129 70.890,61.822 71.734,63.756 C72.578,65.689 73.000,67.769 73.000,69.996 L57.004,69.996 ZM68.482,78.012 C68.142,79.301 67.662,80.519 67.041,81.668 C66.420,82.816 65.670,83.865 64.791,84.814 C63.912,85.764 62.934,86.601 61.855,87.328 L54.156,74.004 L68.992,74.004 C68.992,75.387 68.822,76.723 68.482,78.012 ZM37.422,77.713 C37.141,76.506 37.000,75.269 37.000,74.004 C37.000,71.777 37.416,69.691 38.248,67.746 C39.080,65.801 40.223,64.107 41.676,62.666 C43.129,61.225 44.822,60.082 46.756,59.238 C48.689,58.394 50.769,57.973 52.996,57.973 L52.996,72.844 L38.652,81.105 C38.113,80.051 37.703,78.920 37.422,77.713 ZM60.098,88.312 C59.043,88.852 57.912,89.268 56.705,89.560 C55.498,89.853 54.262,90.000 52.996,90.000 C51.590,90.000 50.242,89.830 48.953,89.490 C47.664,89.150 46.451,88.664 45.314,88.031 C44.178,87.398 43.129,86.643 42.168,85.764 C41.207,84.885 40.363,83.918 39.637,82.863 L52.644,75.340 L60.098,88.312 Z"/>
</svg>