<svg 
 xmlns="http://www.w3.org/2000/svg"
 xmlns:xlink="http://www.w3.org/1999/xlink"
 width="96px" height="107px">
<path fill-rule="evenodd"  fill="rgb(121, 169, 46)"
 d="M95.769,106.363 L14.000,106.363 L14.000,-0.000 L70.216,-0.000 L95.769,25.324 L95.769,106.363 Z"/>
<path fill-rule="evenodd"  fill="rgb(153, 205, 72)"
 d="M92.275,28.058 L68.000,28.058 L68.000,4.000 L92.275,28.058 Z"/>
<path fill-rule="evenodd"  fill="rgb(101, 140, 40)"
 d="M4.000,16.000 L51.000,16.000 C53.212,16.000 55.000,17.788 55.000,20.000 L55.000,40.000 C55.000,42.212 53.212,44.000 51.000,44.000 L4.000,44.000 C1.788,44.000 -0.000,42.212 -0.000,40.000 L-0.000,20.000 C-0.000,17.788 1.788,16.000 4.000,16.000 Z"/>
<path fill-rule="evenodd"  fill="rgb(153, 205, 72)"
 d="M38.551,26.616 C38.182,26.291 37.663,26.128 36.995,26.128 C36.351,26.128 35.850,26.264 35.492,26.537 C35.135,26.809 34.956,27.168 34.956,27.613 C34.956,28.029 35.166,28.378 35.585,28.659 C36.004,28.940 36.620,29.204 37.435,29.450 C38.935,29.901 40.028,30.461 40.713,31.129 C41.399,31.797 41.741,32.629 41.741,33.625 C41.741,34.732 41.322,35.601 40.485,36.231 C39.647,36.861 38.519,37.176 37.101,37.176 C36.116,37.176 35.220,36.996 34.411,36.635 C33.603,36.275 32.986,35.781 32.561,35.154 C32.136,34.527 31.924,33.801 31.924,32.975 L34.569,32.975 C34.569,34.387 35.413,35.093 37.101,35.093 C37.728,35.093 38.217,34.965 38.569,34.710 C38.920,34.455 39.096,34.100 39.096,33.643 C39.096,33.144 38.920,32.762 38.569,32.496 C38.217,32.229 37.584,31.948 36.670,31.652 C35.756,31.356 35.032,31.064 34.499,30.777 C33.046,29.992 32.319,28.934 32.319,27.604 C32.319,26.913 32.514,26.296 32.904,25.754 C33.294,25.212 33.853,24.789 34.583,24.484 C35.312,24.180 36.131,24.027 37.039,24.027 C37.953,24.027 38.768,24.193 39.483,24.524 C40.197,24.855 40.753,25.322 41.148,25.926 C41.544,26.529 41.741,27.215 41.741,27.982 L39.105,27.982 C39.105,27.396 38.920,26.941 38.551,26.616 ZM23.145,24.203 L25.782,24.203 L25.782,34.882 L31.380,34.882 L31.380,37.000 L23.145,37.000 L23.145,24.203 ZM19.183,37.000 L16.722,32.518 L14.261,37.000 L11.193,37.000 L15.017,30.549 L11.290,24.203 L14.322,24.203 L16.722,28.615 L19.121,24.203 L22.153,24.203 L18.427,30.549 L22.250,37.000 L19.183,37.000 Z"/>
<path fill-rule="evenodd"  fill="rgb(153, 205, 72)"
 d="M73.562,57.000 L59.375,57.000 L59.375,64.125 L62.875,64.125 L55.812,70.062 L48.687,64.125 L52.250,64.125 L52.250,57.000 L38.000,57.000 L38.000,64.125 L41.562,64.125 L52.250,73.000 L41.562,81.875 L38.000,81.875 L38.000,89.000 L52.250,89.000 L52.250,81.875 L48.687,81.875 L55.812,75.937 L62.875,81.875 L59.375,81.875 L59.375,89.000 L73.562,89.000 L73.562,81.875 L70.000,81.875 L59.375,73.000 L70.000,64.125 L73.562,64.125 L73.562,57.000 Z"/>
</svg>