<svg 
 xmlns="http://www.w3.org/2000/svg"
 xmlns:xlink="http://www.w3.org/1999/xlink"
 width="96px" height="107px">
<path fill-rule="evenodd"  fill="rgb(121, 169, 46)"
 d="M95.769,106.363 L14.000,106.363 L14.000,-0.000 L70.216,-0.000 L95.769,25.324 L95.769,106.363 Z"/>
<path fill-rule="evenodd"  fill="rgb(153, 205, 72)"
 d="M92.275,28.058 L68.000,28.058 L68.000,4.000 L92.275,28.058 Z"/>
<path fill-rule="evenodd"  fill="rgb(101, 140, 40)"
 d="M4.000,16.000 L51.000,16.000 C53.212,16.000 55.000,17.788 55.000,20.000 L55.000,40.000 C55.000,42.212 53.212,44.000 51.000,44.000 L4.000,44.000 C1.788,44.000 -0.000,42.212 -0.000,40.000 L-0.000,20.000 C-0.000,17.788 1.788,16.000 4.000,16.000 Z"/>
<path fill-rule="evenodd"  fill="rgb(153, 205, 72)"
 d="M47.602,36.252 L44.705,36.252 L42.381,32.019 L40.056,36.252 L37.160,36.252 L40.770,30.159 L37.251,24.166 L40.115,24.166 L42.381,28.333 L44.647,24.166 L47.511,24.166 L43.991,30.159 L47.602,36.252 ZM32.736,29.122 C34.152,29.548 35.184,30.076 35.832,30.707 C36.479,31.338 36.803,32.124 36.803,33.064 C36.803,34.110 36.407,34.931 35.616,35.526 C34.825,36.120 33.759,36.418 32.420,36.418 C31.490,36.418 30.644,36.248 29.880,35.907 C29.116,35.567 28.534,35.101 28.133,34.509 C27.732,33.917 27.531,33.230 27.531,32.450 L30.030,32.450 C30.030,33.784 30.826,34.451 32.420,34.451 C33.012,34.451 33.474,34.330 33.806,34.090 C34.138,33.849 34.304,33.513 34.304,33.081 C34.304,32.611 34.138,32.250 33.806,31.998 C33.474,31.746 32.877,31.480 32.013,31.201 C31.150,30.921 30.467,30.646 29.963,30.375 C28.591,29.633 27.904,28.635 27.904,27.378 C27.904,26.725 28.088,26.143 28.456,25.631 C28.824,25.119 29.353,24.719 30.042,24.432 C30.731,24.144 31.504,24.000 32.362,24.000 C33.225,24.000 33.994,24.156 34.670,24.469 C35.345,24.782 35.869,25.223 36.243,25.793 C36.616,26.363 36.803,27.010 36.803,27.735 L34.313,27.735 C34.313,27.182 34.138,26.752 33.790,26.445 C33.441,26.137 32.951,25.984 32.321,25.984 C31.712,25.984 31.239,26.112 30.901,26.370 C30.564,26.627 30.395,26.966 30.395,27.387 C30.395,27.780 30.593,28.109 30.988,28.374 C31.384,28.640 31.966,28.889 32.736,29.122 ZM19.264,24.166 L21.754,24.166 L21.754,34.251 L27.042,34.251 L27.042,36.252 L19.264,36.252 L19.264,24.166 ZM15.545,36.252 L13.221,32.019 L10.897,36.252 L8.000,36.252 L11.611,30.159 L8.091,24.166 L10.955,24.166 L13.221,28.333 L15.487,24.166 L18.351,24.166 L14.831,30.159 L18.442,36.252 L15.545,36.252 Z"/>
<path fill-rule="evenodd"  fill="rgb(153, 205, 72)"
 d="M73.562,57.000 L59.375,57.000 L59.375,64.125 L62.875,64.125 L55.812,70.062 L48.687,64.125 L52.250,64.125 L52.250,57.000 L38.000,57.000 L38.000,64.125 L41.562,64.125 L52.250,73.000 L41.562,81.875 L38.000,81.875 L38.000,89.000 L52.250,89.000 L52.250,81.875 L48.687,81.875 L55.812,75.937 L62.875,81.875 L59.375,81.875 L59.375,89.000 L73.562,89.000 L73.562,81.875 L70.000,81.875 L59.375,73.000 L70.000,64.125 L73.562,64.125 L73.562,57.000 Z"/>
</svg>